<svg width="66" height="35" viewBox="0 0 66 35" fill="none" xmlns="http://www.w3.org/2000/svg">
<path d="M45.5 2.55C45.5 3.15 45.7 3.85 46.2 4.35L56.8 14.95H26C24.6 14.95 23 16.2001 23 17.6001C23 19.0001 25.1 19.95 26.5 19.95H56.8L46.2 30.45C45.7 30.95 45.5 31.55 45.5 32.25C45.5 32.95 45.7 33.55 46.2 34.05C47.2 35.05 48.8 35.05 49.7 34.05L64.5 19.25C64.6 19.15 64.7 18.95 64.8 18.85C65.3 18.15 65.3 17.25 65 16.55C64.9 16.25 64.7 15.95 64.5 15.75L49.7 0.75C48.7 -0.25 47.1 -0.25 46.2 0.75C45.7 1.25 45.5 1.85 45.5 2.55Z" fill="white"/>
<path d="M12 17.5C12 16.1193 13.1193 15 14.5 15H19.5C20.8807 15 22 16.1193 22 17.5V17.5C22 18.8807 20.8807 20 19.5 20H14.5C13.1193 20 12 18.8807 12 17.5V17.5Z" fill="white"/>
<path d="M6 17.5C6 16.1193 7.11929 15 8.5 15V15C9.88071 15 11 16.1193 11 17.5V17.5C11 18.8807 9.88071 20 8.5 20V20C7.11929 20 6 18.8807 6 17.5V17.5Z" fill="white"/>
<path d="M0 17.5C0 16.1193 1.11929 15 2.5 15V15C3.88071 15 5 16.1193 5 17.5V17.5C5 18.8807 3.88071 20 2.5 20V20C1.11929 20 0 18.8807 0 17.5V17.5Z" fill="white"/>
</svg>
