<svg width="40" height="40" viewBox="0 0 40 40" fill="none" xmlns="http://www.w3.org/2000/svg">
<rect x="0.5" y="0.5" width="39" height="39" rx="19.5" fill="white" stroke="#0A006D"/>
<path d="M12.7273 20.7276H25.5169L23.1221 23.1225C22.8381 23.4065 22.8381 23.867 23.1221 24.151C23.2641 24.2929 23.4502 24.364 23.6364 24.364C23.8225 24.364 24.0086 24.2929 24.1506 24.1509L27.787 20.5146C28.071 20.2306 28.071 19.7701 27.787 19.4861L24.1506 15.8497C23.8666 15.5657 23.4061 15.5657 23.1221 15.8497C22.8381 16.1337 22.8381 16.5942 23.1221 16.8782L25.5169 19.2731H12.7273C12.3256 19.2731 12 19.5987 12 20.0003C12 20.402 12.3256 20.7276 12.7273 20.7276Z" fill="#07013F"/>
</svg>
