<svg width="24" height="24" viewBox="0 0 24 24" fill="none" xmlns="http://www.w3.org/2000/svg">
<g clip-path="url(#clip0_219_10970)">
<path d="M9.14062 19.7807H3.51562C1.57655 19.7807 0 21.3579 0 23.2963C0 23.685 0.314484 23.9994 0.703125 23.9994H11.9531C12.3418 23.9994 12.6562 23.685 12.6562 23.2963C12.6562 21.3579 11.0797 19.7807 9.14062 19.7807ZM14.1683 11.2324L11.0324 14.3684C13.8615 17.4012 15.8828 19.422 16.7999 20.5224L20.5211 16.8016C19.4078 15.8768 17.1938 14.055 14.1683 11.2324ZM16.6292 3.80747V3.79341L13.6058 0.769925C12.568 -0.244403 10.819 -0.301497 9.7245 0.868362C9.38794 1.233 9.23827 1.59933 8.97914 2.10577L15.3354 8.46216C15.8184 8.22066 16.1953 8.06728 16.5731 7.7168C17.6602 6.66568 17.7397 4.9178 16.6292 3.80747ZM2.05866 9.1058C1.60134 9.34102 1.19784 9.51099 0.863391 9.8933C-0.179203 10.8688 -0.354938 12.6146 0.765047 13.7605L3.77423 16.7839C4.85902 17.8375 6.57211 17.7128 7.62736 16.6574C8.01661 16.2681 8.15995 15.93 8.40084 15.448C8.19145 15.2225 2.43464 9.45492 2.05866 9.1058ZM8.21803 3.32616L3.25411 8.30424L9.21661 14.2667C13.7155 9.76692 12.8052 10.6728 14.1946 9.30272L8.21803 3.32616ZM23.908 20.0585C23.6392 18.9287 22.8087 18.0064 21.7288 17.5824L17.5781 21.7328C17.9908 22.8125 18.9253 23.6427 20.0549 23.9116C21.2547 24.178 22.2765 23.8275 23.0504 23.0538C23.8517 22.2383 24.1753 21.1554 23.908 20.0585Z" fill="white"/>
</g>
<defs>
<clipPath id="clip0_219_10970">
<rect width="24" height="24" fill="white"/>
</clipPath>
</defs>
</svg>
