<svg width="24" height="24" viewBox="0 0 24 24" fill="none" xmlns="http://www.w3.org/2000/svg">
<g clip-path="url(#clip0_219_10959)">
<mask id="mask0_219_10959" style="mask-type:luminance" maskUnits="userSpaceOnUse" x="0" y="0" width="24" height="24">
<path d="M0 7.05719e-05H23.9999V24H0V7.05719e-05Z" fill="white"/>
</mask>
<g mask="url(#mask0_219_10959)">
<path d="M10.1953 22.1985C10.1953 23.1934 11.0017 24 11.9963 24H12.0071C13.0018 24 13.8081 23.1934 13.8081 22.1985V18.5065H10.1953V22.1985Z" fill="white"/>
<path d="M8.62687 9.30308H8.13281V10.291H8.62687C8.89922 10.291 9.12093 10.0692 9.12093 9.79681C9.12093 9.52438 8.89922 9.30308 8.62687 9.30308Z" fill="white"/>
<path d="M8.62687 6.90813H8.13281V7.89648H8.62687C8.89922 7.89648 9.12093 7.67472 9.12093 7.40228C9.12093 7.12989 8.89922 6.90813 8.62687 6.90813Z" fill="white"/>
<path d="M17.2753 9.96638C17.2753 10.921 16.4986 11.6979 15.5437 11.6979H14.1778C13.7897 11.6979 13.4747 11.3833 13.4747 10.9946V6.20505C13.4747 5.81683 13.7897 5.50174 14.1778 5.50174H15.5437C16.4986 5.50174 17.2753 6.27864 17.2753 7.23376V9.96638ZM12.6778 10.9946C12.6778 11.3833 12.3633 11.6979 11.9747 11.6979C11.5865 11.6979 11.2715 11.3833 11.2715 10.9946V6.20505C11.2715 5.81683 11.5865 5.50174 11.9747 5.50174C12.3633 5.50174 12.6778 5.81683 12.6778 6.20505V10.9946ZM10.5253 9.79712C10.5253 10.8455 9.67264 11.6979 8.62499 11.6979H7.4278C7.03968 11.6979 6.72468 11.3833 6.72468 10.9946V6.20505C6.72468 5.81683 7.03968 5.50174 7.4278 5.50174H8.62499C9.67264 5.50174 10.5253 6.35463 10.5253 7.40256C10.5253 7.85598 10.3654 8.27279 10.0997 8.60007C10.3654 8.92689 10.5253 9.3437 10.5253 9.79712ZM19.9542 3.83487L16.7404 0.590708C16.3687 0.215147 15.8522 -5.72205e-05 15.3239 -5.72205e-05H8.67608C8.1478 -5.72205e-05 7.63124 0.215147 7.25952 0.590708L4.04578 3.83487C3.67359 4.21048 3.46875 4.70838 3.46875 5.23727V11.893C3.46875 12.4252 3.67641 12.9259 4.05281 13.3024L7.2628 16.5105C7.63921 16.8865 8.13983 17.0938 8.67233 17.0938H15.3276C15.8601 17.0938 16.3607 16.8865 16.7371 16.5105L19.9471 13.3024C20.3235 12.9259 20.5312 12.4252 20.5312 11.893V5.23727C20.5312 4.70838 20.3264 4.21048 19.9542 3.83487Z" fill="white"/>
<path d="M15.5456 6.9081H14.8828V10.291H15.5456C15.7252 10.291 15.8709 10.1452 15.8709 9.96613V7.23351C15.8709 7.14723 15.8366 7.0645 15.7756 7.00349C15.7146 6.94247 15.6319 6.90817 15.5456 6.9081Z" fill="white"/>
</g>
</g>
<defs>
<clipPath id="clip0_219_10959">
<rect width="24" height="24" fill="white"/>
</clipPath>
</defs>
</svg>
