<svg width="26" height="26" viewBox="0 0 26 26" fill="none" xmlns="http://www.w3.org/2000/svg">
<path d="M14.291 22.9248H23.6402" stroke="white" stroke-width="2" stroke-miterlimit="10" stroke-linecap="round" stroke-linejoin="round"/>
<path d="M21.0904 20.3718H16.8408C16.1367 20.3718 15.5659 20.9433 15.5659 21.6483V22.9248H22.3653V21.6483C22.3653 20.9433 21.7945 20.3718 21.0904 20.3718Z" stroke="white" stroke-width="2" stroke-miterlimit="10" stroke-linecap="round" stroke-linejoin="round"/>
<path d="M15.4597 12.8944L19.0657 9.2838L14.2578 4.46977L10.6519 8.08029L15.4597 12.8944Z" stroke="white" stroke-width="2" stroke-miterlimit="10" stroke-linecap="round" stroke-linejoin="round"/>
<path d="M10.6518 8.08032L14.2577 4.46975C14.5896 4.13743 14.5896 3.5986 14.2577 3.26624L13.6567 2.66449C13.3248 2.33216 12.7866 2.33216 12.4547 2.66449L8.84877 6.27505C8.51688 6.60742 8.51688 7.14624 8.84877 7.47856L9.4498 8.08032C9.78169 8.41268 10.3198 8.41268 10.6518 8.08032Z" stroke="white" stroke-width="2" stroke-miterlimit="10" stroke-linecap="round" stroke-linejoin="round"/>
<path d="M17.2626 14.6997L20.8685 11.0891C21.2004 10.7568 21.2004 10.218 20.8685 9.88562L20.2675 9.28387C19.9356 8.95155 19.3974 8.95155 19.0655 9.28387L15.4596 12.8944C15.1277 13.2268 15.1277 13.7656 15.4596 14.0979L16.0606 14.6997C16.3925 15.0321 16.9307 15.0321 17.2626 14.6997Z" stroke="white" stroke-width="2" stroke-miterlimit="10" stroke-linecap="round" stroke-linejoin="round"/>
<path d="M9.91504 11.555L11.9894 13.6321" stroke="white" stroke-width="2" stroke-miterlimit="10" stroke-linecap="round" stroke-linejoin="round"/>
<path d="M6.64556 19.7209L13.9572 11.39L12.1543 9.58473L3.8341 16.9059C2.96973 17.6664 2.92681 19 3.74048 19.8147C4.55411 20.6294 5.88594 20.5864 6.64556 19.7209Z" stroke="white" stroke-width="2" stroke-miterlimit="10" stroke-linecap="round" stroke-linejoin="round"/>
<path d="M18.9656 17.8187V16.5422" stroke="white" stroke-width="2" stroke-miterlimit="10" stroke-linecap="round" stroke-linejoin="round"/>
<path d="M21.5154 18.2441L21.9403 16.9676" stroke="white" stroke-width="2" stroke-miterlimit="10" stroke-linecap="round" stroke-linejoin="round"/>
<path d="M16.4157 18.2441L15.9907 16.9676" stroke="white" stroke-width="2" stroke-miterlimit="10" stroke-linecap="round" stroke-linejoin="round"/>
</svg>
