<svg width="26" height="26" viewBox="0 0 26 26" fill="none" xmlns="http://www.w3.org/2000/svg">
<path d="M14.3038 22.9248H23.6529" stroke="white" stroke-width="2" stroke-miterlimit="10" stroke-linecap="round" stroke-linejoin="round"/>
<path d="M21.1031 20.3718H16.8535C16.1494 20.3718 15.5786 20.9433 15.5786 21.6483V22.9248H22.378V21.6483C22.378 20.9433 21.8072 20.3718 21.1031 20.3718Z" stroke="white" stroke-width="2" stroke-miterlimit="10" stroke-linecap="round" stroke-linejoin="round"/>
<path d="M15.4724 12.8944L19.0784 9.2838L14.2705 4.46977L10.6646 8.08029L15.4724 12.8944Z" stroke="white" stroke-width="2" stroke-miterlimit="10" stroke-linecap="round" stroke-linejoin="round"/>
<path d="M10.6646 8.08032L14.2705 4.46975C14.6024 4.13743 14.6024 3.5986 14.2705 3.26624L13.6695 2.66449C13.3376 2.33216 12.7994 2.33216 12.4675 2.66449L8.86159 6.27505C8.5297 6.60742 8.5297 7.14624 8.86159 7.47856L9.46262 8.08032C9.79451 8.41268 10.3326 8.41268 10.6646 8.08032Z" stroke="white" stroke-width="2" stroke-miterlimit="10" stroke-linecap="round" stroke-linejoin="round"/>
<path d="M17.2754 14.6997L20.8813 11.0891C21.2132 10.7568 21.2132 10.218 20.8813 9.88562L20.2804 9.28387C19.9484 8.95155 19.4103 8.95155 19.0784 9.28387L15.4724 12.8944C15.1405 13.2268 15.1405 13.7656 15.4724 14.0979L16.0735 14.6997C16.4054 15.0321 16.9435 15.0321 17.2754 14.6997Z" stroke="white" stroke-width="2" stroke-miterlimit="10" stroke-linecap="round" stroke-linejoin="round"/>
<path d="M9.92786 11.555L12.0022 13.6321" stroke="white" stroke-width="2" stroke-miterlimit="10" stroke-linecap="round" stroke-linejoin="round"/>
<path d="M6.65838 19.7209L13.9701 11.39L12.1671 9.58473L3.84692 16.9059C2.98255 17.6664 2.93962 19 3.7533 19.8147C4.56693 20.6294 5.89876 20.5864 6.65838 19.7209Z" stroke="white" stroke-width="2" stroke-miterlimit="10" stroke-linecap="round" stroke-linejoin="round"/>
<path d="M18.9783 17.8187V16.5422" stroke="white" stroke-width="2" stroke-miterlimit="10" stroke-linecap="round" stroke-linejoin="round"/>
<path d="M21.5281 18.2441L21.953 16.9676" stroke="white" stroke-width="2" stroke-miterlimit="10" stroke-linecap="round" stroke-linejoin="round"/>
<path d="M16.4285 18.2441L16.0035 16.9676" stroke="white" stroke-width="2" stroke-miterlimit="10" stroke-linecap="round" stroke-linejoin="round"/>
</svg>
