<svg width="16" height="17" viewBox="0 0 16 17" fill="none" xmlns="http://www.w3.org/2000/svg">
<path fill-rule="evenodd" clip-rule="evenodd" d="M3.75 0.498047C4.16421 0.498047 4.5 0.833833 4.5 1.24805V2.49805H11.5V1.24805C11.5 0.833833 11.8358 0.498047 12.25 0.498047C12.6642 0.498047 13 0.833833 13 1.24805V2.49805H13.25C14.7688 2.49805 16 3.72926 16 5.24805V13.748C16 15.2668 14.7688 16.498 13.25 16.498H2.75C1.23122 16.498 0 15.2668 0 13.748V5.24805C0 3.72926 1.23122 2.49805 2.75 2.49805H3V1.24805C3 0.833833 3.33579 0.498047 3.75 0.498047ZM2.75 5.99805C2.05964 5.99805 1.5 6.55769 1.5 7.24805V13.748C1.5 14.4384 2.05964 14.998 2.75 14.998H13.25C13.9404 14.998 14.5 14.4384 14.5 13.748V7.24805C14.5 6.55769 13.9404 5.99805 13.25 5.99805H2.75Z" fill="white"/>
</svg>