<svg width="24" height="25" viewBox="0 0 24 25" fill="none" xmlns="http://www.w3.org/2000/svg">
<path d="M21.1875 2.43335H20.0625V0.55835H18.1875V2.43335H5.8125V0.55835H3.9375V2.43335H2.8125C1.26169 2.43335 0 3.69504 0 5.24585V21.7458C0 23.2967 1.26169 24.5583 2.8125 24.5583H21.1875C22.7383 24.5583 24 23.2967 24 21.7458V5.24585C24 3.69504 22.7383 2.43335 21.1875 2.43335ZM22.125 21.7458C22.125 22.2628 21.7044 22.6833 21.1875 22.6833H2.8125C2.29556 22.6833 1.875 22.2628 1.875 21.7458V9.37085H22.125V21.7458ZM22.125 7.49585H1.875V5.24585C1.875 4.72891 2.29556 4.30835 2.8125 4.30835H3.9375V6.18335H5.8125V4.30835H18.1875V6.18335H20.0625V4.30835H21.1875C21.7044 4.30835 22.125 4.72891 22.125 5.24585V7.49585Z" fill="#505470"/>
<path d="M4.4375 11.3396H2.5625V13.2146H4.4375V11.3396Z" fill="#505470"/>
<path d="M8.1875 11.3396H6.3125V13.2146H8.1875V11.3396Z" fill="#505470"/>
<path d="M11.9375 11.3396H10.0625V13.2146H11.9375V11.3396Z" fill="#505470"/>
<path d="M15.6875 11.3396H13.8125V13.2146H15.6875V11.3396Z" fill="#505470"/>
<path d="M19.4375 11.3396H17.5625V13.2146H19.4375V11.3396Z" fill="#505470"/>
<path d="M4.4375 15.0896H2.5625V16.9646H4.4375V15.0896Z" fill="#505470"/>
<path d="M8.1875 15.0896H6.3125V16.9646H8.1875V15.0896Z" fill="#505470"/>
<path d="M11.9375 15.0896H10.0625V16.9646H11.9375V15.0896Z" fill="#505470"/>
<path d="M15.6875 15.0896H13.8125V16.9646H15.6875V15.0896Z" fill="#505470"/>
<path d="M4.4375 18.8396H2.5625V20.7146H4.4375V18.8396Z" fill="#505470"/>
<path d="M8.1875 18.8396H6.3125V20.7146H8.1875V18.8396Z" fill="#505470"/>
<path d="M11.9375 18.8396H10.0625V20.7146H11.9375V18.8396Z" fill="#505470"/>
<path d="M15.6875 18.8396H13.8125V20.7146H15.6875V18.8396Z" fill="#505470"/>
<path d="M19.4375 15.0896H17.5625V16.9646H19.4375V15.0896Z" fill="#505470"/>
</svg>
