<svg width="26" height="27" viewBox="0 0 26 27" fill="none" xmlns="http://www.w3.org/2000/svg">
<g clip-path="url(#clip0_149_960)">
<path d="M1.84968 9.16926L13.0879 13.4226C13.1883 13.46 13.293 13.4791 13.3986 13.4791C13.5041 13.4791 13.6088 13.46 13.7093 13.4226L24.9475 9.16926C25.2809 9.04298 25.5013 8.72729 25.5013 8.37508C25.5013 8.02286 25.2809 7.70718 24.9475 7.58089L13.7093 3.32756C13.5084 3.25279 13.2888 3.25279 13.0879 3.32756L1.84973 7.58089C1.51625 7.70718 1.2959 8.02286 1.2959 8.37508C1.2959 8.72729 1.51625 9.04298 1.84968 9.16926ZM13.3986 5.03306L22.2282 8.37508L13.3986 11.7171L4.56894 8.37508L13.3986 5.03306Z" fill="white"/>
<path d="M24.9475 17.789L22.4697 16.8511L20.0612 17.7632L22.2282 18.5832L13.3986 21.9252L4.56894 18.5832L6.73606 17.7632L4.32749 16.8511L1.84973 17.789C1.51625 17.9153 1.2959 18.2309 1.2959 18.5832C1.2959 18.9354 1.51625 19.2511 1.84968 19.3773L13.0879 23.6307C13.1883 23.6681 13.293 23.6872 13.3986 23.6872C13.5041 23.6872 13.6088 23.6681 13.7093 23.6307L24.9475 19.3773C25.2809 19.2511 25.5013 18.9354 25.5013 18.5832C25.5013 18.2309 25.2809 17.9153 24.9475 17.789Z" fill="white"/>
<path d="M24.9475 12.685L22.4697 11.7471L20.0612 12.6592L22.2282 13.4792L13.3986 16.8212L4.56894 13.4792L6.73606 12.6592L4.32749 11.7471L1.84973 12.685C1.51625 12.8113 1.2959 13.1269 1.2959 13.4792C1.2959 13.8314 1.51625 14.1471 1.84968 14.2733L13.0879 18.5267C13.1883 18.5641 13.293 18.5832 13.3986 18.5832C13.5041 18.5832 13.6088 18.5641 13.7093 18.5267L24.9475 14.2733C25.2809 14.1471 25.5013 13.8314 25.5013 13.4792C25.5013 13.1269 25.2809 12.8113 24.9475 12.685Z" fill="white"/>
</g>
<defs>
<clipPath id="clip0_149_960">
<rect width="25.0651" height="25.0974" fill="white" transform="translate(0.865967 0.930664)"/>
</clipPath>
</defs>
</svg>
