<svg width="26" height="26" viewBox="0 0 26 26" fill="none" xmlns="http://www.w3.org/2000/svg">
<path d="M11.836 11.123C11.836 12.0833 11.0585 12.8618 10.0994 12.8618H4.88966C3.93059 12.8618 3.15308 12.0833 3.15308 11.123V4.16775C3.15308 3.20745 3.93059 2.42894 4.88966 2.42894H10.0994C11.0585 2.42894 11.836 3.20745 11.836 4.16775V11.123Z" stroke="white" stroke-width="2" stroke-miterlimit="10"/>
<path d="M23.6441 21.207C23.6441 22.1673 22.8666 22.9458 21.9075 22.9458H16.6978C15.7387 22.9458 14.9612 22.1673 14.9612 21.207V14.2517C14.9612 13.2914 15.7387 12.5129 16.6978 12.5129H21.9075C22.8666 12.5129 23.6441 13.2914 23.6441 14.2517V21.207Z" stroke="white" stroke-width="2" stroke-miterlimit="10"/>
<path d="M11.836 21.207C11.836 22.1673 11.0585 22.9458 10.0994 22.9458H4.88966C3.93059 22.9458 3.15308 22.1673 3.15308 21.207V17.7294C3.15308 16.7691 3.93059 15.9905 4.88966 15.9905H10.0994C11.0585 15.9905 11.836 16.7691 11.836 17.7294V21.207Z" stroke="white" stroke-width="2" stroke-miterlimit="10"/>
<path d="M23.6443 7.64473C23.6443 8.60503 22.8668 9.38354 21.9077 9.38354H16.698C15.7389 9.38354 14.9614 8.60503 14.9614 7.64473V4.16711C14.9614 3.2068 15.7389 2.42829 16.698 2.42829H21.9077C22.8668 2.42829 23.6443 3.2068 23.6443 4.16711V7.64473Z" stroke="white" stroke-width="2" stroke-miterlimit="10"/>
</svg>
