<svg width="24" height="24" viewBox="0 0 24 24" fill="none" xmlns="http://www.w3.org/2000/svg">
<g clip-path="url(#clip0_304_8058)">
<path d="M14.8118 1.05745C14.3147 0.575391 13.545 0 12.7024 0C11.3353 0 10.1598 1.51472 10.0307 1.68778C9.95235 1.79219 9.90462 1.91635 9.89286 2.04636C9.88109 2.17637 9.90576 2.30708 9.96409 2.42386L12.2678 7.07812H17.3555L19.6596 2.42386C19.7179 2.30708 19.7426 2.17637 19.7308 2.04636C19.719 1.91635 19.6713 1.79219 19.593 1.68778C19.4638 1.51472 18.2883 0 16.9212 0C16.0787 0 15.3089 0.575391 14.8118 1.05745ZM15.5149 8.48438V8.60522C15.5149 9.68395 15.9523 10.74 16.7152 11.5028C16.9898 11.7775 16.9898 12.2225 16.7152 12.4971C16.4405 12.7718 15.9955 12.7718 15.7209 12.4971C15.3618 12.1387 15.0569 11.7315 14.8118 11.2913C14.5667 11.7315 14.2618 12.1387 13.9026 12.4971C13.628 12.7718 13.183 12.7718 12.9084 12.4971C12.6337 12.2225 12.6337 11.7775 12.9084 11.5028C13.6713 10.74 14.1087 9.68395 14.1087 8.60522V8.48438H11.4742C9.85234 10.0172 8.24313 12.1006 7.16406 14.1094H13.4056C14.5687 14.1094 15.5149 15.0556 15.5149 16.2188V23.2969C15.5149 23.5461 15.4639 23.7779 15.3841 24H16.321C20.37 24 23.9993 23.0973 23.9993 19.0312C23.9993 15.7783 20.8267 11.148 18.0995 8.48438H15.5149Z" fill="white"/>
<path d="M7.07812 20.4375C7.46645 20.4375 7.78125 20.1227 7.78125 19.7344C7.78125 19.346 7.46645 19.0312 7.07812 19.0312C6.6898 19.0312 6.375 19.346 6.375 19.7344C6.375 20.1227 6.6898 20.4375 7.07812 20.4375Z" fill="white"/>
<path d="M0.703125 24H13.4062C13.7949 24 14.1094 23.6855 14.1094 23.2969V16.2188C14.1094 15.8301 13.7949 15.5156 13.4062 15.5156H0.703125C0.314484 15.5156 0 15.8301 0 16.2188V23.2969C0 23.6855 0.314484 24 0.703125 24ZM11.2969 19.0312C11.6852 19.0312 12 19.346 12 19.7344C12 20.1227 11.6852 20.4375 11.2969 20.4375C10.9086 20.4375 10.5938 20.1227 10.5938 19.7344C10.5938 19.346 10.9086 19.0312 11.2969 19.0312ZM7.07812 17.625C8.24128 17.625 9.1875 18.5712 9.1875 19.7344C9.1875 20.8975 8.24128 21.8438 7.07812 21.8438C5.91497 21.8438 4.96875 20.8975 4.96875 19.7344C4.96875 18.5712 5.91497 17.625 7.07812 17.625ZM2.85938 19.0312C3.24769 19.0312 3.5625 19.346 3.5625 19.7344C3.5625 20.1227 3.24769 20.4375 2.85938 20.4375C2.47106 20.4375 2.15625 20.1227 2.15625 19.7344C2.15625 19.346 2.47106 19.0312 2.85938 19.0312Z" fill="white"/>
</g>
<defs>
<clipPath id="clip0_304_8058">
<rect width="24" height="24" fill="white"/>
</clipPath>
</defs>
</svg>
