<svg width="30" height="21" viewBox="0 0 30 21" fill="none" xmlns="http://www.w3.org/2000/svg">
<path d="M23.9226 11.9048H6.42358C5.54863 11.9048 4.96533 11.319 4.96533 10.4403C4.96533 9.56162 5.54863 8.97583 6.42358 8.97583H23.9226C24.7975 8.97583 25.3808 9.56162 25.3808 10.4403C25.3808 11.319 24.7975 11.9048 23.9226 11.9048Z" fill="white"/>
<path d="M19.5481 20.6918H10.7986C9.92363 20.6918 9.34033 20.106 9.34033 19.2273C9.34033 18.3486 9.92363 17.7628 10.7986 17.7628H19.5481C20.423 17.7628 21.0063 18.3486 21.0063 19.2273C21.0063 20.106 20.423 20.6918 19.5481 20.6918Z" fill="white"/>
<path d="M28.2976 3.11793H2.04907C1.17412 3.11793 0.59082 2.53214 0.59082 1.65345C0.59082 0.774758 1.17412 0.188965 2.04907 0.188965H28.2976C29.1725 0.188965 29.7558 0.774758 29.7558 1.65345C29.7558 2.53214 29.1725 3.11793 28.2976 3.11793Z" fill="white"/>
</svg>
