<svg width="30" height="21" viewBox="0 0 30 21" fill="none" xmlns="http://www.w3.org/2000/svg">
<path d="M23.9355 11.7977H6.43646C5.56151 11.7977 4.97821 11.2119 4.97821 10.3333C4.97821 9.45457 5.56151 8.86877 6.43646 8.86877H23.9355C24.8104 8.86877 25.3937 9.45457 25.3937 10.3333C25.3937 11.2119 24.8104 11.7977 23.9355 11.7977Z" fill="white"/>
<path d="M19.5607 20.5847H10.8112C9.93627 20.5847 9.35297 19.9989 9.35297 19.1202C9.35297 18.2416 9.93627 17.6558 10.8112 17.6558H19.5607C20.4357 17.6558 21.019 18.2416 21.019 19.1202C21.019 19.9989 20.4357 20.5847 19.5607 20.5847Z" fill="white"/>
<path d="M28.3103 3.01088H2.06177C1.18682 3.01088 0.603516 2.42508 0.603516 1.54639C0.603516 0.667702 1.18682 0.0819092 2.06177 0.0819092H28.3103C29.1852 0.0819092 29.7685 0.667702 29.7685 1.54639C29.7685 2.42508 29.1852 3.01088 28.3103 3.01088Z" fill="white"/>
</svg>
