<svg width="16" height="11" viewBox="0 0 16 11" fill="none" xmlns="http://www.w3.org/2000/svg">
<path fill-rule="evenodd" clip-rule="evenodd" d="M15.8047 1.02868C15.9296 1.1537 15.9999 1.32324 15.9999 1.50002C15.9999 1.67679 15.9296 1.84633 15.8047 1.97135L9.47134 8.30468C9.34632 8.42966 9.17678 8.49987 9 8.49987C8.82323 8.49987 8.65369 8.42966 8.52867 8.30468L5.66667 5.44268L1.138 9.97135C1.01227 10.0928 0.843866 10.16 0.669068 10.1585C0.49427 10.1569 0.327062 10.0868 0.203456 9.96323C0.0798507 9.83962 0.00973812 9.67242 0.00821917 9.49762C0.00670023 9.32282 0.0738965 9.15442 0.195335 9.02868L5.19534 4.02868C5.32035 3.9037 5.48989 3.83349 5.66667 3.83349C5.84344 3.83349 6.01298 3.9037 6.138 4.02868L9 6.89068L14.862 1.02868C14.987 0.903703 15.1566 0.833492 15.3333 0.833492C15.5101 0.833492 15.6797 0.903703 15.8047 1.02868Z" fill="#34C759"/>
<path fill-rule="evenodd" clip-rule="evenodd" d="M10.6667 1.5C10.6667 1.32319 10.7369 1.15362 10.8619 1.02859C10.987 0.90357 11.1565 0.833332 11.3333 0.833332H15.3333C15.5101 0.833332 15.6797 0.90357 15.8047 1.02859C15.9298 1.15362 16 1.32319 16 1.5V5.5C16 5.67681 15.9298 5.84638 15.8047 5.9714C15.6797 6.09643 15.5101 6.16667 15.3333 6.16667C15.1565 6.16667 14.987 6.09643 14.8619 5.9714C14.7369 5.84638 14.6667 5.67681 14.6667 5.5V2.16667H11.3333C11.1565 2.16667 10.987 2.09643 10.8619 1.9714C10.7369 1.84638 10.6667 1.67681 10.6667 1.5Z" fill="#34C759"/>
</svg>
