<svg width="26" height="26" viewBox="0 0 26 26" fill="none" xmlns="http://www.w3.org/2000/svg">
<g clip-path="url(#clip0_149_1307)">
<path d="M20.8545 6.21093V22.6529C20.8545 23.0208 20.5563 23.3195 20.1888 23.3195H6.60834C6.24086 23.3195 5.94263 23.0208 5.94263 22.6529V2.56704C5.94263 2.19909 6.24086 1.90047 6.60834 1.90047H16.594" stroke="white" stroke-width="2" stroke-miterlimit="10" stroke-linecap="round" stroke-linejoin="round"/>
<path d="M20.8545 6.21094L16.594 1.90048V6.21094H20.8545Z" stroke="white" stroke-width="2" stroke-miterlimit="10" stroke-linecap="round" stroke-linejoin="round"/>
<path d="M10.9899 5.38293C10.9899 5.38293 10.4578 4.89144 9.63751 5.13887C8.88432 5.36604 8.69726 6.39793 9.2091 6.79987C9.50299 7.03068 9.9452 7.22047 10.5411 7.43137C11.875 7.90348 11.3819 9.78693 10.0251 9.79604C9.49562 9.79955 9.24807 9.76591 8.78296 9.4612" stroke="white" stroke-width="2" stroke-miterlimit="10" stroke-linecap="round" stroke-linejoin="round"/>
<path d="M10.0251 10.4836V9.79615" stroke="white" stroke-width="2" stroke-miterlimit="10" stroke-linecap="round" stroke-linejoin="round"/>
<path d="M10.0251 5.07117V4.43349" stroke="white" stroke-width="2" stroke-miterlimit="10" stroke-linecap="round" stroke-linejoin="round"/>
<path d="M18.0141 20.431H15.5288" stroke="white" stroke-width="2" stroke-miterlimit="10" stroke-linecap="round" stroke-linejoin="round"/>
<path d="M8.78296 13.321H18.0141" stroke="white" stroke-width="2" stroke-miterlimit="10" stroke-linecap="round" stroke-linejoin="round"/>
<path d="M8.78296 16.165H18.0141" stroke="white" stroke-width="2" stroke-miterlimit="10" stroke-linecap="round" stroke-linejoin="round"/>
</g>
<defs>
<clipPath id="clip0_149_1307">
<rect width="25.0651" height="25.0974" fill="white" transform="translate(0.865967 0.0612793)"/>
</clipPath>
</defs>
</svg>
