<svg width="16" height="11" viewBox="0 0 16 11" fill="none" xmlns="http://www.w3.org/2000/svg">
<path fill-rule="evenodd" clip-rule="evenodd" d="M15.8047 9.97133C15.9296 9.84631 15.9999 9.67677 15.9999 9.49999C15.9999 9.32322 15.9296 9.15368 15.8047 9.02866L9.47133 2.69533C9.34631 2.57035 9.17677 2.50014 9 2.50014C8.82322 2.50014 8.65368 2.57035 8.52867 2.69533L5.66666 5.55733L1.138 1.02866C1.01226 0.907222 0.843862 0.840026 0.669064 0.841545C0.494266 0.843064 0.327058 0.913177 0.203452 1.03678C0.0798469 1.16039 0.0097343 1.3276 0.00821536 1.50239C0.00669641 1.67719 0.0738927 1.84559 0.195331 1.97133L5.19533 6.97133C5.32035 7.09631 5.48989 7.16652 5.66666 7.16652C5.84344 7.16652 6.01298 7.09631 6.138 6.97133L9 4.10933L14.862 9.97133C14.987 10.0963 15.1566 10.1665 15.3333 10.1665C15.5101 10.1665 15.6796 10.0963 15.8047 9.97133Z" fill="#FF3B30"/>
<path fill-rule="evenodd" clip-rule="evenodd" d="M10.6667 9.50001C10.6667 9.67682 10.7369 9.84639 10.8619 9.97141C10.987 10.0964 11.1565 10.1667 11.3333 10.1667H15.3333C15.5101 10.1667 15.6797 10.0964 15.8047 9.97141C15.9298 9.84639 16 9.67682 16 9.50001V5.5C16 5.32319 15.9298 5.15362 15.8047 5.0286C15.6797 4.90358 15.5101 4.83334 15.3333 4.83334C15.1565 4.83334 14.987 4.90358 14.8619 5.0286C14.7369 5.15362 14.6667 5.32319 14.6667 5.5V8.83334H11.3333C11.1565 8.83334 10.987 8.90358 10.8619 9.0286C10.7369 9.15362 10.6667 9.32319 10.6667 9.50001Z" fill="#FF3B30"/>
</svg>
