<svg width="24" height="24" viewBox="0 0 24 24" fill="none" xmlns="http://www.w3.org/2000/svg">
<path d="M20.0453 15.3891C20.0453 11.9008 17.8137 8.92425 14.7033 7.81102C15.72 7.00927 16.3738 5.76689 16.3738 4.37466C16.3738 1.96247 14.4114 0 11.9992 0C9.58703 0 7.62461 1.96247 7.62461 4.37461C7.62461 5.76684 8.27842 7.00922 9.29505 7.81097C6.1847 8.92425 3.95312 11.9007 3.95312 15.3891C3.95312 16.7966 4.62152 18.0508 5.65736 18.8515C5.76803 15.4489 8.57012 12.7148 11.9992 12.7148C15.4283 12.7148 18.2304 15.4489 18.3411 18.8515C19.377 18.0508 20.0453 16.7966 20.0453 15.3891Z" fill="white"/>
<path d="M11.998 14.1211C9.27442 14.1211 7.05859 16.3369 7.05859 19.0605C7.05859 21.7842 9.27442 24 11.998 24C14.7217 24 16.9375 21.7842 16.9375 19.0605C16.9375 16.3369 14.7217 14.1211 11.998 14.1211ZM11.5897 20.6952L11.5771 20.6953C11.4848 20.6953 11.3933 20.6771 11.308 20.6418C11.2227 20.6064 11.1452 20.5546 11.08 20.4893L10.1874 19.5967C9.91281 19.3222 9.91281 18.877 10.1874 18.6024C10.462 18.3278 10.9072 18.3278 11.1818 18.6024L11.559 18.9796L12.7968 17.6498C13.0615 17.3655 13.5064 17.3497 13.7905 17.6142C14.0748 17.8788 14.0907 18.3237 13.8262 18.608L12.0918 20.4713C12.0274 20.5404 11.9498 20.5959 11.8636 20.6343C11.7773 20.6728 11.6842 20.6935 11.5897 20.6952Z" fill="white"/>
</svg>
