<svg width="25" height="25" viewBox="0 0 30 30" fill="none" xmlns="http://www.w3.org/2000/svg">
<path d="M3.75078 27.1875C3.50214 27.1875 3.26368 27.0887 3.08787 26.9129C2.91205 26.7371 2.81328 26.4986 2.81328 26.25V7.5C2.73987 6.86668 2.81062 6.22495 3.02024 5.62283C3.22985 5.02071 3.5729 4.47378 4.02373 4.02295C4.47456 3.57213 5.02149 3.22908 5.62361 3.01946C6.22573 2.80985 6.86745 2.7391 7.50078 2.8125H17.5008C17.7494 2.8125 17.9879 2.91127 18.1637 3.08709C18.3395 3.2629 18.4383 3.50136 18.4383 3.75C18.4383 3.99864 18.3395 4.2371 18.1637 4.41291C17.9879 4.58873 17.7494 4.6875 17.5008 4.6875H7.50078C5.52953 4.6875 4.68828 5.52875 4.68828 7.5V23.9863L6.83828 21.8375C6.92513 21.7503 7.02837 21.681 7.14207 21.6338C7.25577 21.5867 7.37767 21.5624 7.50078 21.5625H22.5008C24.472 21.5625 25.3133 20.7213 25.3133 18.75V12.5C25.3133 12.2514 25.412 12.0129 25.5879 11.8371C25.7637 11.6613 26.0021 11.5625 26.2508 11.5625C26.4994 11.5625 26.7379 11.6613 26.9137 11.8371C27.0895 12.0129 27.1883 12.2514 27.1883 12.5V18.75C27.2617 19.3833 27.1909 20.0251 26.9813 20.6272C26.7717 21.2293 26.4287 21.7762 25.9778 22.2271C25.527 22.6779 24.9801 23.0209 24.3779 23.2305C23.7758 23.4402 23.1341 23.5109 22.5008 23.4375H7.88953L4.41328 26.9125C4.32647 26.9998 4.22324 27.0691 4.10953 27.1163C3.99582 27.1635 3.87389 27.1877 3.75078 27.1875ZM28.4383 5C28.4383 4.32013 28.2367 3.65552 27.859 3.09023C27.4812 2.52493 26.9444 2.08434 26.3163 1.82417C25.6881 1.56399 24.997 1.49592 24.3302 1.62855C23.6633 1.76119 23.0508 2.08858 22.5701 2.56932C22.0894 3.05007 21.762 3.66257 21.6293 4.32938C21.4967 4.99619 21.5648 5.68736 21.8249 6.31548C22.0851 6.9436 22.5257 7.48046 23.091 7.85818C23.6563 8.2359 24.3209 8.4375 25.0008 8.4375C25.9123 8.43684 26.7862 8.07446 27.4307 7.42995C28.0752 6.78544 28.4376 5.91148 28.4383 5ZM26.5633 5C26.5633 5.30903 26.4716 5.61113 26.2999 5.86808C26.1283 6.12503 25.8842 6.3253 25.5987 6.44356C25.3132 6.56183 24.999 6.59277 24.696 6.53248C24.3929 6.47219 24.1144 6.32338 23.8959 6.10486C23.6774 5.88634 23.5286 5.60793 23.4683 5.30483C23.408 5.00174 23.439 4.68757 23.5572 4.40206C23.6755 4.11655 23.8757 3.87252 24.1327 3.70083C24.3896 3.52914 24.6917 3.4375 25.0008 3.4375C25.415 3.43816 25.812 3.60299 26.1049 3.89588C26.3978 4.18876 26.5626 4.5858 26.5633 5ZM19.6883 11.25C19.6883 11.0014 19.5895 10.7629 19.4137 10.5871C19.2379 10.4113 18.9994 10.3125 18.7508 10.3125H10.0008C9.75214 10.3125 9.51368 10.4113 9.33786 10.5871C9.16205 10.7629 9.06328 11.0014 9.06328 11.25C9.06328 11.4986 9.16205 11.7371 9.33786 11.9129C9.51368 12.0887 9.75214 12.1875 10.0008 12.1875H18.7508C18.9994 12.1875 19.2379 12.0887 19.4137 11.9129C19.5895 11.7371 19.6883 11.4986 19.6883 11.25ZM17.1883 16.25C17.1883 16.0014 17.0895 15.7629 16.9137 15.5871C16.7379 15.4113 16.4994 15.3125 16.2508 15.3125H10.0008C9.75214 15.3125 9.51368 15.4113 9.33786 15.5871C9.16205 15.7629 9.06328 16.0014 9.06328 16.25C9.06328 16.4986 9.16205 16.7371 9.33786 16.9129C9.51368 17.0887 9.75214 17.1875 10.0008 17.1875H16.2508C16.4994 17.1875 16.7379 17.0887 16.9137 16.9129C17.0895 16.7371 17.1883 16.4986 17.1883 16.25Z" fill="white"/>
</svg>
