<svg width="26" height="26" viewBox="0 0 26 26" fill="none" xmlns="http://www.w3.org/2000/svg">
<path d="M23.4982 14.1123L18.4482 15.7978V23.4246L23.4982 21.7391V14.1123Z" stroke="white" stroke-width="1.5" stroke-miterlimit="10" stroke-linecap="round" stroke-linejoin="round"/>
<path d="M13.3984 14.1123L18.4484 15.7978V23.4246L13.3984 21.7391V14.1123Z" stroke="white" stroke-width="1.5" stroke-miterlimit="10" stroke-linecap="round" stroke-linejoin="round"/>
<path d="M23.4983 14.1121L18.4484 15.7976L13.3984 14.1121L18.4484 12.4267L23.4983 14.1121Z" stroke="white" stroke-width="1.5" stroke-miterlimit="10" stroke-linecap="round" stroke-linejoin="round"/>
<path d="M13.3983 14.1123L8.34839 15.7978V23.4246L13.3983 21.7391V14.1123Z" stroke="white" stroke-width="1.5" stroke-miterlimit="10" stroke-linecap="round" stroke-linejoin="round"/>
<path d="M3.29858 14.1123L8.34851 15.7978V23.4246L3.29858 21.7391V14.1123Z" stroke="white" stroke-width="1.5" stroke-miterlimit="10" stroke-linecap="round" stroke-linejoin="round"/>
<path d="M13.3984 14.1121L8.34851 15.7976L3.29858 14.1121L8.34851 12.4267L13.3984 14.1121Z" stroke="white" stroke-width="1.5" stroke-miterlimit="10" stroke-linecap="round" stroke-linejoin="round"/>
<path d="M18.4484 4.80006L13.3984 6.48553V14.1123L18.4484 12.4268V4.80006Z" stroke="white" stroke-width="1.5" stroke-miterlimit="10" stroke-linecap="round" stroke-linejoin="round"/>
<path d="M8.34839 4.80006L13.3983 6.48553V14.1123L8.34839 12.4268V4.80006Z" stroke="white" stroke-width="1.5" stroke-miterlimit="10" stroke-linecap="round" stroke-linejoin="round"/>
<path d="M18.4482 4.79988L13.3983 6.48535L8.34839 4.79988L13.3983 3.1144L18.4482 4.79988Z" stroke="white" stroke-width="1.5" stroke-miterlimit="10" stroke-linecap="round" stroke-linejoin="round"/>
</svg>
