<svg width="26" height="26" viewBox="0 0 26 26" fill="none" xmlns="http://www.w3.org/2000/svg">
<path d="M6.63717 18.7751C4.89932 18.7751 3.49048 20.198 3.49048 21.9532V22.6471H9.78383V21.9532C9.78383 20.198 8.37503 18.7751 6.63717 18.7751Z" stroke="white" stroke-width="2" stroke-miterlimit="10" stroke-linecap="round" stroke-linejoin="round"/>
<path d="M8.48722 16.9065C8.48722 17.9385 7.65893 18.775 6.63716 18.775C5.6154 18.775 4.78711 17.9385 4.78711 16.9065C4.78711 15.8745 5.6154 15.0379 6.63716 15.0379C7.65893 15.0379 8.48722 15.8745 8.48722 16.9065Z" stroke="white" stroke-width="2" stroke-miterlimit="10" stroke-linecap="round" stroke-linejoin="round"/>
<path d="M20.1601 18.7751C18.4222 18.7751 17.0134 20.198 17.0134 21.9532V22.6471H23.3068V21.9532C23.3068 20.198 21.8979 18.7751 20.1601 18.7751Z" stroke="white" stroke-width="2" stroke-miterlimit="10" stroke-linecap="round" stroke-linejoin="round"/>
<path d="M22.0102 16.9065C22.0102 17.9385 21.1819 18.775 20.1601 18.775C19.1383 18.775 18.3101 17.9385 18.3101 16.9065C18.3101 15.8745 19.1383 15.0379 20.1601 15.0379C21.1819 15.0379 22.0102 15.8745 22.0102 16.9065Z" stroke="white" stroke-width="2" stroke-miterlimit="10" stroke-linecap="round" stroke-linejoin="round"/>
<path d="M13.3986 6.37003C11.6608 6.37003 10.252 7.79295 10.252 9.54813V10.2421H16.5453V9.54813C16.5453 7.79295 15.1365 6.37003 13.3986 6.37003Z" stroke="white" stroke-width="2" stroke-miterlimit="10" stroke-linecap="round" stroke-linejoin="round"/>
<path d="M15.2487 4.50145C15.2487 5.53343 14.4204 6.37 13.3986 6.37C12.3769 6.37 11.5486 5.53343 11.5486 4.50145C11.5486 3.46948 12.3769 2.63291 13.3986 2.63291C14.4204 2.63291 15.2487 3.46948 15.2487 4.50145Z" stroke="white" stroke-width="2" stroke-miterlimit="10" stroke-linecap="round" stroke-linejoin="round"/>
<path d="M10.7361 18.3703C11.5575 18.6323 12.4422 18.775 13.3648 18.775C14.3207 18.775 15.2362 18.622 16.0823 18.3417" stroke="white" stroke-width="2" stroke-miterlimit="10" stroke-linecap="round" stroke-linejoin="round"/>
<path d="M8.14203 7.62026C7.52177 8.22413 6.9753 8.94128 6.53511 9.76016C6.07901 10.6086 5.77544 11.4944 5.61597 12.3793" stroke="white" stroke-width="2" stroke-miterlimit="10" stroke-linecap="round" stroke-linejoin="round"/>
<path d="M21.1813 12.3793C21.0219 11.4943 20.7183 10.6086 20.2622 9.76016C19.822 8.94128 19.2756 8.22413 18.6553 7.62026" stroke="white" stroke-width="2" stroke-miterlimit="10" stroke-linecap="round" stroke-linejoin="round"/>
</svg>
