<svg width="24" height="24" viewBox="0 0 24 24" fill="none" xmlns="http://www.w3.org/2000/svg">
<path d="M10.1938 22.1986C10.1938 23.1933 11.0002 23.9996 11.9949 23.9996H12.0056C13.0003 23.9996 13.8067 23.1933 13.8067 22.1986V18.5077H10.1938V22.1986ZM12.0002 4.19727C9.59828 4.19727 7.64453 6.15008 7.64453 8.55055C7.64453 10.951 9.59828 12.9043 12.0002 12.9043C14.402 12.9043 16.3562 10.951 16.3562 8.55055C16.3562 6.15008 14.402 4.19727 12.0002 4.19727ZM14.0894 7.80617L11.6045 10.2901C11.5393 10.3553 11.4618 10.4071 11.3766 10.4424C11.2913 10.4777 11.1999 10.4959 11.1077 10.4959C10.9277 10.4959 10.7477 10.427 10.6103 10.2901L9.535 9.21523C9.26031 8.94055 9.26031 8.49523 9.535 8.22055C9.80922 7.94586 10.2545 7.94586 10.5292 8.22055L11.1077 8.79852L13.0956 6.81148C13.3698 6.53727 13.8152 6.53727 14.0898 6.81195C14.3641 7.08664 14.3641 7.53148 14.0894 7.80617Z" fill="white"/>
<path d="M18.5597 0H5.44078C4.34063 0 3.44531 0.895313 3.44531 1.99547V15.1068C3.44531 16.207 4.34063 17.1018 5.44078 17.1018H18.5597C19.6598 17.1018 20.5547 16.207 20.5547 15.1068V1.99547C20.5547 0.895313 19.6598 0 18.5597 0ZM12 14.3109C8.82281 14.3109 6.23813 11.7271 6.23813 8.55089C6.23813 5.37511 8.82281 2.79136 12 2.79136C15.1772 2.79136 17.7623 5.37511 17.7623 8.55089C17.7623 11.7271 15.1772 14.3109 12 14.3109Z" fill="white"/>
</svg>
