<svg width="24" height="24" viewBox="0 0 24 24" fill="none" xmlns="http://www.w3.org/2000/svg">
<g clip-path="url(#clip0_304_8063)">
<path d="M6.97129 10.4115C6.64821 10.4115 6.38975 10.6754 6.38975 10.9931V12.4792C6.38638 12.5573 6.39885 12.6353 6.42642 12.7085C6.45399 12.7817 6.49609 12.8485 6.55017 12.905C6.60425 12.9614 6.66921 13.0064 6.74112 13.0371C6.81303 13.0678 6.89041 13.0836 6.96859 13.0836C7.04678 13.0836 7.12416 13.0678 7.19607 13.0371C7.26798 13.0064 7.33293 12.9614 7.38702 12.905C7.4411 12.8485 7.48319 12.7817 7.51076 12.7085C7.53833 12.6353 7.55081 12.5573 7.54744 12.4792V10.9931C7.54744 10.6754 7.28898 10.4115 6.97129 10.4115ZM6.97129 10.4115C6.64821 10.4115 6.38975 10.6754 6.38975 10.9931V12.4792C6.38638 12.5573 6.39885 12.6353 6.42642 12.7085C6.45399 12.7817 6.49609 12.8485 6.55017 12.905C6.60425 12.9614 6.66921 13.0064 6.74112 13.0371C6.81303 13.0678 6.89041 13.0836 6.96859 13.0836C7.04678 13.0836 7.12416 13.0678 7.19607 13.0371C7.26798 13.0064 7.33293 12.9614 7.38702 12.905C7.4411 12.8485 7.48319 12.7817 7.51076 12.7085C7.53833 12.6353 7.55081 12.5573 7.54744 12.4792V10.9931C7.54744 10.6754 7.28898 10.4115 6.97129 10.4115ZM6.97129 10.4115C6.64821 10.4115 6.38975 10.6754 6.38975 10.9931V12.4792C6.38638 12.5573 6.39885 12.6353 6.42642 12.7085C6.45399 12.7817 6.49609 12.8485 6.55017 12.905C6.60425 12.9614 6.66921 13.0064 6.74112 13.0371C6.81303 13.0678 6.89041 13.0836 6.96859 13.0836C7.04678 13.0836 7.12416 13.0678 7.19607 13.0371C7.26798 13.0064 7.33293 12.9614 7.38702 12.905C7.4411 12.8485 7.48319 12.7817 7.51076 12.7085C7.53833 12.6353 7.55081 12.5573 7.54744 12.4792V10.9931C7.54744 10.6754 7.28898 10.4115 6.97129 10.4115ZM14.3644 10.81C14.1382 10.4277 13.9551 10.3577 13.7021 10.3577H13.3521V13.1738H13.7021C13.9551 13.1738 14.1382 13.0985 14.3644 12.7215C14.5151 12.4685 14.5905 12.1454 14.5905 11.7631C14.5905 11.3808 14.5151 11.0577 14.3644 10.81ZM14.3644 10.81C14.1382 10.4277 13.9551 10.3577 13.7021 10.3577H13.3521V13.1738H13.7021C13.9551 13.1738 14.1382 13.0985 14.3644 12.7215C14.5151 12.4685 14.5905 12.1454 14.5905 11.7631C14.5905 11.3808 14.5151 11.0577 14.3644 10.81ZM6.97129 10.4115C6.64821 10.4115 6.38975 10.6754 6.38975 10.9931V12.4792C6.38638 12.5573 6.39885 12.6353 6.42642 12.7085C6.45399 12.7817 6.49609 12.8485 6.55017 12.905C6.60425 12.9614 6.66921 13.0064 6.74112 13.0371C6.81303 13.0678 6.89041 13.0836 6.96859 13.0836C7.04678 13.0836 7.12416 13.0678 7.19607 13.0371C7.26798 13.0064 7.33293 12.9614 7.38702 12.905C7.4411 12.8485 7.48319 12.7817 7.51076 12.7085C7.53833 12.6353 7.55081 12.5573 7.54744 12.4792V10.9931C7.54744 10.6754 7.28898 10.4115 6.97129 10.4115ZM22.759 11.5315C21.9028 12.3823 20.9444 12.9746 20.0236 13.2331C19.8513 13.2869 19.6682 13.3246 19.4959 13.3462C19.4259 13.3569 19.3505 13.3677 19.2805 13.3677C18.9682 13.6369 18.5697 13.7931 18.1282 13.7931C17.1428 13.7931 16.3351 12.9854 16.3351 12C16.3337 11.7619 16.3807 11.526 16.4733 11.3066C16.5659 11.0872 16.7021 10.889 16.8736 10.7238C16.9759 10.6215 17.089 10.53 17.2182 10.46C17.1859 10.6269 17.1697 10.7938 17.1697 10.9554C17.1697 11.4992 17.3421 12.0108 17.6705 12.3392C18.0097 12.6731 18.4674 12.8454 19.0113 12.8454C19.2805 12.8454 19.5713 12.8023 19.8728 12.7162C20.7074 12.4792 21.5851 11.9354 22.3821 11.1546C24.0351 9.50154 24.5521 7.43385 23.5667 6.44308C22.759 5.64077 21.2136 5.84 19.7597 6.87385L19.7544 6.86846C19.6467 6.72308 19.5282 6.58846 19.399 6.45923C18.4997 5.53308 17.2451 5 15.9367 5H4.77975C2.10898 5 -0.0664062 7.17538 -0.0664062 9.84615V14.1538C-0.0664062 16.8246 2.10898 19 4.77975 19H15.9367C17.4821 19 18.9467 18.2569 19.8513 17.0077L22.3497 13.5885C22.8021 12.9638 22.9582 12.1992 22.8128 11.4777L22.759 11.5315ZM18.3436 10.4277C18.3705 10.3577 18.3813 10.2931 18.3759 10.2231H18.3813C18.9251 10.3038 19.399 10.6323 19.6682 11.0846C20.1797 10.8854 20.7236 10.5138 21.2136 10.0346C21.3967 9.85154 21.5528 9.67385 21.6874 9.50154L20.7074 8.16615L20.3951 7.73538C21.4397 6.99769 22.4467 6.84692 22.8021 7.20769C23.2759 7.67615 22.8721 9.14077 21.5905 10.4223C20.9659 11.0362 20.2336 11.4938 19.5821 11.6823C19.0651 11.8277 18.6451 11.79 18.4297 11.5746C18.2682 11.4131 18.1444 10.9231 18.3436 10.4277ZM3.31513 14.1377C2.74975 14.1377 2.22744 13.8092 1.98513 13.2977C1.8559 13.0285 1.97436 12.7108 2.24359 12.5815C2.51282 12.4523 2.83052 12.5654 2.95975 12.8346C3.02436 12.9746 3.16436 13.0608 3.31513 13.0608C3.53052 13.0608 3.70821 12.8831 3.70821 12.6677C3.70821 12.4523 3.53052 12.2746 3.31513 12.2746C2.50206 12.2746 1.84513 11.6177 1.84513 10.8046C1.84513 9.99692 2.50206 9.33462 3.31513 9.33462C3.88052 9.33462 4.40282 9.66846 4.64513 10.1854C4.76898 10.4546 4.6559 10.7723 4.38667 10.9015C4.11744 11.0254 3.79436 10.9069 3.67052 10.6377C3.63817 10.5707 3.58778 10.514 3.525 10.4741C3.46222 10.4341 3.38954 10.4125 3.31513 10.4115C3.09436 10.4115 2.92206 10.5892 2.92206 10.8046C2.92206 11.02 3.09436 11.1977 3.31513 11.1977C4.12282 11.1977 4.78513 11.8546 4.78513 12.6677C4.78513 13.4754 4.12282 14.1377 3.31513 14.1377ZM8.62436 12.4792C8.62436 13.3946 7.88129 14.1377 6.97129 14.1377C6.0559 14.1377 5.31282 13.3946 5.31282 12.4792V10.9931C5.31282 10.0777 6.0559 9.33462 6.97129 9.33462C7.4102 9.33604 7.83066 9.5114 8.14052 9.82227C8.45037 10.1331 8.62437 10.5542 8.62436 10.9931V12.4792ZM11.3974 14.1377H9.66898C9.37283 14.1377 9.13052 13.8954 9.13052 13.5992V9.81923C9.13052 9.51769 9.37283 9.28077 9.66898 9.28077C9.97052 9.28077 10.2074 9.51769 10.2074 9.81923V13.0608H11.3974C11.699 13.0608 11.9359 13.3031 11.9359 13.5992C11.9359 13.8954 11.699 14.1377 11.3974 14.1377ZM15.2905 13.2708C15.0428 13.6908 14.6013 14.2508 13.7021 14.2508H12.8136C12.5174 14.2508 12.2751 14.0085 12.2751 13.7123V9.81923C12.2751 9.51769 12.5174 9.28077 12.8136 9.28077H13.7021C14.6013 9.28077 15.0428 9.83539 15.2905 10.2554C15.5436 10.6754 15.6674 11.1815 15.6674 11.7631C15.6674 12.3446 15.5436 12.8508 15.2905 13.2708ZM13.7021 10.3577H13.3521V13.1738H13.7021C13.9551 13.1738 14.1382 13.0985 14.3644 12.7215C14.5151 12.4685 14.5905 12.1454 14.5905 11.7631C14.5905 11.3808 14.5151 11.0577 14.3644 10.81C14.1382 10.4277 13.9551 10.3577 13.7021 10.3577ZM6.97129 10.4115C6.64821 10.4115 6.38975 10.6754 6.38975 10.9931V12.4792C6.38638 12.5573 6.39885 12.6353 6.42642 12.7085C6.45399 12.7817 6.49609 12.8485 6.55017 12.905C6.60425 12.9614 6.66921 13.0064 6.74112 13.0371C6.81303 13.0678 6.89041 13.0836 6.96859 13.0836C7.04678 13.0836 7.12416 13.0678 7.19607 13.0371C7.26798 13.0064 7.33293 12.9614 7.38702 12.905C7.4411 12.8485 7.48319 12.7817 7.51076 12.7085C7.53833 12.6353 7.55081 12.5573 7.54744 12.4792V10.9931C7.54744 10.6754 7.28898 10.4115 6.97129 10.4115ZM6.97129 10.4115C6.64821 10.4115 6.38975 10.6754 6.38975 10.9931V12.4792C6.38638 12.5573 6.39885 12.6353 6.42642 12.7085C6.45399 12.7817 6.49609 12.8485 6.55017 12.905C6.60425 12.9614 6.66921 13.0064 6.74112 13.0371C6.81303 13.0678 6.89041 13.0836 6.96859 13.0836C7.04678 13.0836 7.12416 13.0678 7.19607 13.0371C7.26798 13.0064 7.33293 12.9614 7.38702 12.905C7.4411 12.8485 7.48319 12.7817 7.51076 12.7085C7.53833 12.6353 7.55081 12.5573 7.54744 12.4792V10.9931C7.54744 10.6754 7.28898 10.4115 6.97129 10.4115ZM6.97129 10.4115C6.64821 10.4115 6.38975 10.6754 6.38975 10.9931V12.4792C6.38638 12.5573 6.39885 12.6353 6.42642 12.7085C6.45399 12.7817 6.49609 12.8485 6.55017 12.905C6.60425 12.9614 6.66921 13.0064 6.74112 13.0371C6.81303 13.0678 6.89041 13.0836 6.96859 13.0836C7.04678 13.0836 7.12416 13.0678 7.19607 13.0371C7.26798 13.0064 7.33293 12.9614 7.38702 12.905C7.4411 12.8485 7.48319 12.7817 7.51076 12.7085C7.53833 12.6353 7.55081 12.5573 7.54744 12.4792V10.9931C7.54744 10.6754 7.28898 10.4115 6.97129 10.4115Z" fill="white"/>
</g>
<defs>
<clipPath id="clip0_304_8063">
<rect width="24" height="24" fill="white"/>
</clipPath>
</defs>
</svg>
