<svg width="24" height="24" viewBox="0 0 24 24" fill="none" xmlns="http://www.w3.org/2000/svg">
<g clip-path="url(#clip0_219_10956)">
<path d="M17.5879 13.0942V16.5625C17.5879 16.6914 17.6291 16.8168 17.7055 16.9206L18.5112 18.0162C18.5674 18.0926 18.6407 18.1547 18.7253 18.1975C18.8099 18.2403 18.9033 18.2626 18.9981 18.2626H19.7861V11.4917H18.9843C18.8933 11.4917 18.8034 11.5123 18.7215 11.5519C18.6395 11.5915 18.5675 11.6491 18.5109 11.7204L17.7189 12.7185C17.6341 12.8254 17.5879 12.9578 17.5879 13.0942ZM5.05086 10.0854V9.59607C5.05086 5.79996 8.12561 2.72263 11.9185 2.72263C15.7114 2.72263 18.7861 5.79996 18.7861 9.59607V10.0854H21.8158V9.90568C21.8158 4.43492 17.3847 0 11.9185 0C6.45237 0 2.0212 4.43492 2.0212 9.90568V10.0854H5.05086ZM21.2247 18.2625H23.3955C23.7293 18.2625 23.9999 17.9919 23.9999 17.6581V12.096C23.9999 11.7623 23.7293 11.4916 23.3955 11.4916H21.2247V18.2625ZM12.8041 20.6211H11.2013C10.2683 20.6211 9.51193 21.3774 9.51193 22.3105V22.5938H5.76827L4.13239 21.3312V19.6687H2.72615V21.6767C2.72615 21.8946 2.82716 22.1002 2.99966 22.2333L5.0989 23.8535C5.22198 23.9485 5.37305 24 5.52851 24L12.8041 23.9999C13.7372 23.9999 14.4936 23.2435 14.4936 22.3105C14.4936 21.3774 13.7372 20.6211 12.8041 20.6211ZM4.13234 18.2625H4.94642C5.13087 18.2625 5.3052 18.1782 5.41985 18.0338L6.21185 17.0357C6.29666 16.9288 6.34282 16.7964 6.34282 16.66V13.1917C6.34282 13.0628 6.30166 12.9374 6.2253 12.8336L5.41953 11.738C5.36337 11.6616 5.29004 11.5995 5.20546 11.5567C5.12088 11.5139 5.02742 11.4916 4.93264 11.4916H4.13234V18.2625ZM2.71377 11.4917H0.604404C0.270608 11.4917 0 11.7623 0 12.0961V17.6581C0 17.9919 0.270608 18.2625 0.604404 18.2625H2.71377V11.4917Z" fill="white"/>
</g>
<defs>
<clipPath id="clip0_219_10956">
<rect width="24" height="24" fill="white"/>
</clipPath>
</defs>
</svg>
