<svg width="26" height="26" viewBox="0 0 26 26" fill="none" xmlns="http://www.w3.org/2000/svg">
<g clip-path="url(#clip0_125_7854)">
<path d="M14.3339 10.693C14.3339 10.693 14.3325 10.6919 14.3299 10.6898C14.3284 10.6886 14.3263 10.6869 14.3238 10.685C14.2453 10.6237 13.7151 10.2399 12.9996 10.4541C12.2566 10.6765 12.0721 11.6869 12.577 12.0805C12.867 12.3065 13.3032 12.4923 13.8911 12.6989C15.207 13.1611 14.7206 15.0054 13.3821 15.0143C12.8597 15.0178 12.6155 14.9848 12.1566 14.6864" stroke="#F5F5F5" stroke-width="1.8" stroke-miterlimit="10" stroke-linecap="round" stroke-linejoin="round"/>
<path d="M13.4114 9.46014V10.3859" stroke="#F5F5F5" stroke-width="1.8" stroke-miterlimit="10" stroke-linecap="round" stroke-linejoin="round"/>
<path d="M13.4114 15.0145V15.9402" stroke="#F5F5F5" stroke-width="1.8" stroke-miterlimit="10" stroke-linecap="round" stroke-linejoin="round"/>
<path d="M13.4115 17.7916C16.2409 17.7916 18.5347 15.5121 18.5347 12.7001C18.5347 9.88818 16.2409 7.60864 13.4115 7.60864C10.582 7.60864 8.28827 9.88818 8.28827 12.7001C8.28827 15.5121 10.582 17.7916 13.4115 17.7916Z" stroke="#F5F5F5" stroke-width="1.8" stroke-miterlimit="10" stroke-linecap="round" stroke-linejoin="round"/>
<path d="M17.5449 9.69158H20.6304V11.543L24.8221 7.84009L20.6304 4.13721V5.98865H15.0415V7.87204" stroke="#F5F5F5" stroke-width="1.8" stroke-miterlimit="10" stroke-linecap="round" stroke-linejoin="round"/>
<path d="M9.27794 15.7088H6.19236V13.8574L2.00067 17.5603L6.19236 21.2632V19.4117H11.7813V17.5283" stroke="#F5F5F5" stroke-width="1.8" stroke-miterlimit="10" stroke-linecap="round" stroke-linejoin="round"/>
</g>
<defs>
<clipPath id="clip0_125_7854">
<rect width="25.0651" height="25.0974" fill="white" transform="translate(0.878845 0.151489)"/>
</clipPath>
</defs>
</svg>
