<svg width="32" height="32" viewBox="0 0 32 32" fill="none" xmlns="http://www.w3.org/2000/svg">
<g clip-path="url(#clip0_296_466)">
<path d="M16 0C12.8355 0 9.74207 0.938384 7.11088 2.69649C4.4797 4.45459 2.42894 6.95345 1.21793 9.87707C0.00693251 12.8007 -0.309921 16.0177 0.307443 19.1214C0.924806 22.2251 2.44866 25.0761 4.6863 27.3137C6.92394 29.5513 9.77487 31.0752 12.8786 31.6926C15.9823 32.3099 19.1993 31.9931 22.1229 30.7821C25.0466 29.5711 27.5454 27.5203 29.3035 24.8891C31.0616 22.2579 32 19.1645 32 16C32 11.7565 30.3143 7.68687 27.3137 4.68629C24.3131 1.68571 20.2435 0 16 0ZM23.9684 11.1579C23.5902 11.726 23.1282 12.2335 22.5979 12.6632C22.5311 12.7189 22.4775 12.7888 22.4411 12.8678C22.4046 12.9468 22.3863 13.033 22.3874 13.12V13.1726C22.3812 14.3136 22.1716 15.4442 21.7684 16.5116C21.353 17.6318 20.7358 18.6665 19.9474 19.5642C18.8879 20.7703 17.525 21.671 16 22.1726C14.998 22.4979 13.9503 22.6606 12.8968 22.6547C11.2256 22.6545 9.58406 22.2122 8.13895 21.3726C8.08717 21.3432 8.04641 21.2977 8.02285 21.2429C7.99929 21.1882 7.99423 21.1273 8.00843 21.0695C8.023 21.0126 8.0562 20.9621 8.10275 20.9263C8.1493 20.8904 8.20651 20.8712 8.26527 20.8716H8.66527C9.93524 20.8738 11.177 20.497 12.2316 19.7895C11.6033 19.6869 11.0155 19.4131 10.5327 18.9983C10.0499 18.5834 9.69075 18.0435 9.49474 17.4379C9.48472 17.4076 9.48291 17.3751 9.48947 17.3439C9.49604 17.3126 9.51076 17.2836 9.53214 17.2599C9.55352 17.2362 9.5808 17.2185 9.6112 17.2087C9.64161 17.199 9.67406 17.1974 9.70527 17.2042C9.89686 17.2403 10.0914 17.2586 10.2863 17.2589H10.36C9.75264 16.9802 9.23909 16.5314 8.88151 15.9668C8.52394 15.4022 8.33768 14.7461 8.34527 14.0779C8.34549 14.0466 8.3538 14.016 8.36939 13.9889C8.38498 13.9618 8.40733 13.9392 8.43425 13.9233C8.46117 13.9074 8.49176 13.8987 8.52302 13.8981C8.55428 13.8976 8.58515 13.9051 8.61264 13.92C8.85962 14.0579 9.12463 14.1606 9.40001 14.2253C8.85619 13.6869 8.50638 12.9833 8.40542 12.2247C8.30445 11.4662 8.45805 10.6956 8.84211 10.0337C8.85685 10.0084 8.8775 9.98705 8.90229 9.97149C8.92708 9.95592 8.95528 9.94661 8.98447 9.94433C9.01365 9.94205 9.04295 9.94689 9.06986 9.95842C9.09676 9.96994 9.12047 9.98783 9.13895 10.0105C9.90009 10.951 10.842 11.7293 11.9091 12.2996C12.9762 12.8698 14.1467 13.2204 15.3516 13.3305H15.3684C15.3861 13.33 15.4036 13.3259 15.4196 13.3184C15.4357 13.311 15.4501 13.3003 15.4619 13.2871C15.4737 13.2739 15.4827 13.2585 15.4884 13.2417C15.494 13.2249 15.4962 13.2071 15.4947 13.1895C15.4479 12.767 15.4749 12.3395 15.5747 11.9263C15.7106 11.3647 15.9894 10.8477 16.3841 10.4257C16.7789 10.0037 17.276 9.69093 17.8274 9.5179C18.1811 9.4074 18.5494 9.35063 18.92 9.34947C19.7603 9.34851 20.5719 9.65474 21.2021 10.2105C21.2838 10.2836 21.3894 10.324 21.499 10.3242C21.5345 10.3235 21.5698 10.3185 21.6042 10.3095C22.196 10.1597 22.7632 9.92571 23.2884 9.61474C23.3198 9.59537 23.3565 9.58618 23.3933 9.58843C23.4301 9.59068 23.4654 9.60426 23.4942 9.62731C23.523 9.65036 23.544 9.68175 23.5542 9.71719C23.5645 9.75262 23.5636 9.79037 23.5516 9.82526C23.3764 10.3764 23.0642 10.874 22.6442 11.2716C23.0228 11.1823 23.3922 11.0576 23.7474 10.8989C23.7822 10.8859 23.8202 10.8838 23.8562 10.8931C23.8923 10.9024 23.9246 10.9226 23.9487 10.9509C23.9729 10.9792 23.9877 11.0142 23.9913 11.0513C23.9948 11.0883 23.9868 11.1255 23.9684 11.1579Z" fill="white"/>
</g>
<defs>
<clipPath id="clip0_296_466">
<rect width="32" height="32" fill="white"/>
</clipPath>
</defs>
</svg>
