<svg width="26" height="26" viewBox="0 0 26 26" fill="none" xmlns="http://www.w3.org/2000/svg">
<g clip-path="url(#clip0_149_887)">
<path d="M13.4803 8.89424C13.4803 11.1523 11.6909 12.9829 9.48351 12.9829C7.27622 12.9829 5.48682 11.1523 5.48682 8.89424C5.48682 6.6361 7.27622 4.80553 9.48351 4.80553C11.6909 4.80553 13.4803 6.6361 13.4803 8.89424Z" stroke="#6259CA" stroke-width="2" stroke-miterlimit="10"/>
<path d="M3.53574 20.2939C2.8548 20.2939 2.3301 19.6659 2.45166 18.9805C3.05649 15.5695 5.97465 12.9827 9.48341 12.9827C12.9922 12.9827 15.9103 15.5695 16.5151 18.9805C16.6367 19.6659 16.112 20.2939 15.431 20.2939H3.53574Z" stroke="#6259CA" stroke-width="2" stroke-miterlimit="10"/>
<path d="M22.0002 8.32563C22.0002 10.0737 20.6151 11.4907 18.9064 11.4907C17.1977 11.4907 15.8125 10.0737 15.8125 8.32563C15.8125 6.57766 17.1977 5.16059 18.9064 5.16059C20.6151 5.16059 22.0002 6.57766 22.0002 8.32563Z" stroke="#6259CA" stroke-width="2" stroke-miterlimit="10"/>
<path d="M13.9663 14.5998C14.8781 12.7554 16.7478 11.4908 18.9063 11.4908C21.6224 11.4908 23.8814 13.4932 24.3496 16.1337C24.4437 16.6642 24.0375 17.1504 23.5103 17.1504H15.9375" stroke="#6259CA" stroke-width="2" stroke-miterlimit="10"/>
</g>
<defs>
<clipPath id="clip0_149_887">
<rect width="25.0651" height="25.0974" fill="white" transform="translate(0.865967 0.000976562)"/>
</clipPath>
</defs>
</svg>
