<svg width="24" height="24" viewBox="0 0 24 24" fill="none" xmlns="http://www.w3.org/2000/svg">
<path d="M20.5355 12.8116H18.6794C18.8686 13.3295 18.972 13.8885 18.972 14.4711V21.486C18.972 21.7289 18.9297 21.962 18.8527 22.1789H21.9212C23.0675 22.1789 24 21.2463 24 20.1002V16.276C24 14.3658 22.4458 12.8116 20.5355 12.8116ZM5.02805 14.4712C5.02805 13.8885 5.13141 13.3296 5.32059 12.8116H3.46453C1.55419 12.8116 0 14.3658 0 16.2761V20.1003C0 21.2464 0.932484 22.179 2.07872 22.179H5.14725C5.06827 21.9565 5.02796 21.7221 5.02805 21.486V14.4712ZM14.1216 11.0066H9.87839C7.96805 11.0066 6.41386 12.5608 6.41386 14.4712V21.486C6.41386 21.8687 6.72408 22.1789 7.10677 22.1789H16.8932C17.2759 22.1789 17.5861 21.8687 17.5861 21.486V14.4712C17.5861 12.5608 16.032 11.0066 14.1216 11.0066ZM12 1.82031C9.70256 1.82031 7.83347 3.68941 7.83347 5.98689C7.83347 7.54525 8.69358 8.90627 9.9638 9.62083C10.5663 9.95973 11.2609 10.1534 12 10.1534C12.7391 10.1534 13.4337 9.95973 14.0362 9.62083C15.3065 8.90627 16.1665 7.5452 16.1665 5.98689C16.1665 3.68945 14.2974 1.82031 12 1.82031ZM4.68366 5.70386C2.96545 5.70386 1.56764 7.10167 1.56764 8.81988C1.56764 10.5381 2.96545 11.9359 4.68366 11.9359C5.10589 11.9363 5.52374 11.8503 5.91155 11.6833C6.56339 11.4027 7.10086 10.9059 7.43344 10.2836C7.67436 9.83339 7.80018 9.33053 7.79967 8.81988C7.79967 7.10172 6.40186 5.70386 4.68366 5.70386ZM19.3163 5.70386C17.5981 5.70386 16.2003 7.10167 16.2003 8.81988C16.1998 9.33053 16.3256 9.83339 16.5666 10.2836C16.8991 10.906 17.4366 11.4027 18.0885 11.6833C18.4763 11.8503 18.8941 11.9363 19.3163 11.9359C21.0345 11.9359 22.4324 10.5381 22.4324 8.81988C22.4324 7.10167 21.0345 5.70386 19.3163 5.70386Z" fill="white"/>
</svg>
